<?xml version="1.0" encoding="UTF-8"?>
<svg id="Vrstva_1" data-name="Vrstva 1" xmlns="http://www.w3.org/2000/svg" viewBox="0 0 604.24 344.69">
  <defs>
    <style>
      .cls-1, .cls-2 {
        fill: none;
      }

      .cls-3 {
        fill: #353535;
      }

      .cls-4 {
        fill: #af1917;
      }

      .cls-2 {
        stroke: #af191a;
        stroke-miterlimit: 10;
        stroke-width: 5px;
      }
    </style>
  </defs>
  <path class="cls-4" d="m126.6,220.4l-4.9-103.76-31.2,7.73c-31.65,7.84-44.38,24.26-38.19,49.25.73,2.96,2.01,6.53,3.83,10.7l-22.69,18.32c-2.54-25.03,3.2-46.78,17.21-65.26,14.01-18.48,34.29-31.01,60.84-37.59l52.29-12.95c23.59-5.85,38.83-11.28,45.7-16.3,6.87-5.02,10.33-13.25,10.37-24.69l16.63-12.11c-1.97,16.72-10,31.84-24.1,45.37-14.1,13.53-31.59,22.88-52.47,28.05l-12.33,3.06,4.16,90.2c.79,16.21-.69,29.51-4.44,39.91-3.75,10.4-10.99,21.24-21.71,32.54"/>
  <path class="cls-3" d="m290.64,236.38l.08-21.66-1.76-48.14c-.6-16.81,2.46-30.74,9.2-41.77,6.74-11.03,16.45-18.05,29.13-21.05,4.39-1.04,8.49-1.52,12.31-1.44l-6.87,11.67c-5.75-1.12-10.46-1.25-14.14-.38-5.9,1.4-10.28,4.56-13.14,9.5-1.66,2.88-2.7,6.24-3.13,10.09-.42,3.85-.58,11.64-.48,23.37l.29,30.64.8-.19c2.01-10.12,5.75-18.82,11.22-26.09,5.47-7.27,11.6-11.7,18.39-13.31,7.5-1.77,12.1.96,13.81,8.19,1.78,7.54.22,14.59-4.7,21.14-4.91,6.55-12.81,12.09-23.68,16.63,16.73,14.5,28.14,21.03,34.22,19.59,3.86-.91,8.04-4.73,12.53-11.47l.19,4.94c-6.88,10.34-12.95,16.13-18.23,17.38-4.26,1.01-9.05-.07-14.36-3.24s-14.97-10.66-28.96-22.48l1.21,33.93-13.92,4.14Zm12.56-41.97l.07.9,2.26-.54c9.32-2.2,16.77-6.64,22.36-13.3,5.59-6.66,7.57-13.43,5.95-20.31-1.03-4.35-3.27-6.11-6.73-5.29-7.5,1.77-15.47,14.62-23.91,38.54Z"/>
  <path class="cls-3" d="m421.39,166.45l-1.2.28c-2.37,12.32-6.25,22.83-11.64,31.53-5.38,8.7-11.16,13.78-17.32,15.23-9.35,2.21-15.41-2.54-18.18-14.25-3.05-12.91-.9-26.77,6.46-41.58,7.61-15.34,19.09-24.82,34.44-28.46,6.34-1.5,13.04-2.8,20.08-3.91l-.13,20.83,1.32,34.4c.2,5.39.47,8.84.83,10.34.66,2.79,2.3,3.88,4.92,3.26,4.44-1.05,9.89-7.49,16.37-19.33l.27,6.47c-7.27,12.73-14.77,20.01-22.5,21.84-6.44,1.52-10.46-1.06-12.04-7.76-.52-2.22-.88-6.12-1.07-11.69l-.61-17.21Zm-.95-27.88c-6.17-1.16-11.99-1.1-17.44.19-8.07,1.91-13.32,8.54-15.74,19.88-2.82,13.41-3.09,24.93-.82,34.55,1.65,6.97,4.51,9.96,8.59,9,3.81-.9,8.35-6.2,13.62-15.9,5.27-9.7,9.38-20.34,12.36-31.91l-.56-15.82Zm-13.45-20.71l.71-6.49c4.76-6.42,12-14.41,21.73-23.97l-1.81,11.67c-9.78,8.17-16.66,14.43-20.64,18.8Z"/>
  <path class="cls-3" d="m474.56,192.87l.08-21.64-1.24-34.03c-.11-3.44-.45-6.35-1.01-8.74-.9-3.81-2.68-5.4-5.35-4.77-4.7,1.11-10.24,7.71-16.61,19.8l-.2-6.2c7.64-13.47,15.22-21.09,22.76-22.88,6.39-1.51,10.45,1.39,12.18,8.7.77,3.24,1.22,6.92,1.35,11.05l.6,16.78.87-.2c2.65-12.35,6.75-22.9,12.29-31.64,5.54-8.74,11.31-13.83,17.3-15.24,3.1-.73,6.04-.7,8.81.11l-6.01,14.12c-3.03-1.11-5.45-1.45-7.27-1.02-8.65,2.05-17.16,17.47-25.52,46.26l.88,25.41-13.92,4.13Z"/>
  <path class="cls-4" d="m210.44,245.99c-3.51,0-6.43-1.37-8.77-4.12-2.34-2.74-3.51-6.16-3.51-10.26,0-7.71,2.92-14.84,8.75-21.38,5.83-6.54,12.19-9.82,19.07-9.82,3.72,0,6.79,1.34,9.19,4.01,2.41,2.68,3.61,6.09,3.61,10.24,0,8-2.92,15.22-8.75,21.66-5.84,6.44-12.37,9.66-19.59,9.66Zm3.32-6.25c1.59,1.15,3.74,1.14,6.43-.04s5.02-3.12,6.97-5.83c2.57-3.56,2.77-6.13.6-7.7-1.54-1.11-3.69-1.05-6.45.17-2.76,1.23-5.1,3.16-7.01,5.81-2.53,3.5-2.71,6.03-.54,7.59Z"/>
  <line class="cls-2" x1="125.65" y1="282.65" x2="565.68" y2="178.55"/>
  <path class="cls-3" d="m197.85,281.87c-9.01,0-16.52-3.52-22.53-10.57-6.02-7.05-9.02-15.83-9.02-26.35,0-19.8,7.49-38.1,22.48-54.91,14.98-16.81,31.31-25.21,48.98-25.21,9.55,0,17.43,3.44,23.61,10.31,6.19,6.88,9.28,15.64,9.28,26.29,0,20.55-7.49,39.1-22.48,55.63-14.99,16.53-31.76,24.8-50.32,24.8Zm11.75-8.97c10.17,0,19.13-6.55,26.86-19.64,7.73-13.1,11.6-28.3,11.6-45.63,0-22.75-6.94-34.13-20.83-34.13-9.83,0-18.68,6.75-26.55,20.26-7.87,13.51-11.81,28.72-11.81,45.63,0,22.34,6.91,33.51,20.73,33.51Z"/>
  <g>
    <path class="cls-3" d="m266.42,304.96l-3.18.75-5.41-22.85-3.09,24.86-2.22.53-13.99-20.82,5.41,22.85-2.78.66-6.19-26.17,4.85-1.15,12.86,19.06,2.77-22.76,4.79-1.13,6.19,26.17Z"/>
    <path class="cls-3" d="m279.76,302.37c-2.66.63-4.97.13-6.92-1.48-1.96-1.62-3.28-3.89-3.97-6.8-.73-3.08-.47-5.74.76-7.98,1.24-2.24,3.1-3.65,5.6-4.24,2.67-.63,5.01-.16,7.01,1.41,2,1.57,3.34,3.81,4.03,6.72s.47,5.68-.74,7.99c-1.21,2.31-3.13,3.77-5.76,4.39Zm-.36-2.55c1.53-.36,2.67-1.3,3.4-2.81.74-1.51.79-3.6.16-6.27s-1.64-4.5-3.01-5.45c-1.37-.95-2.79-1.25-4.24-.91s-2.62,1.26-3.36,2.73c-.75,1.47-.81,3.52-.18,6.17.66,2.8,1.65,4.68,2.98,5.64,1.32.96,2.74,1.26,4.26.9Z"/>
    <path class="cls-3" d="m294.55,298.31l-1.46.34-6.19-26.17,3.01-.71,2.37,10.03c.79-2.83,2.4-4.54,4.82-5.11,2.22-.53,4.29-.09,6.21,1.31,1.92,1.4,3.27,3.77,4.06,7.11.68,2.88.51,5.47-.5,7.77-1.01,2.3-2.7,3.73-5.07,4.29-2.63.62-4.95-.15-6.94-2.31l-.32,3.46Zm-.24-7.96c.61,1.95,1.56,3.25,2.86,3.89,1.29.64,2.54.82,3.75.54,1.54-.36,2.62-1.32,3.24-2.88.63-1.55.67-3.49.12-5.81-.59-2.5-1.51-4.35-2.76-5.56-1.25-1.21-2.68-1.63-4.29-1.25-1.27.3-2.29,1.08-3.07,2.34-.78,1.26-1.07,2.71-.88,4.37l1.03,4.35Z"/>
    <path class="cls-3" d="m311.1,266.76l.79,3.36-3.24.77-.79-3.36,3.24-.77Zm1.51,6.83l4.58,19.37-3.01.71-4.58-19.37,3.01-.71Z"/>
    <path class="cls-3" d="m326.21,290.82l-3.01.71-6.19-26.17,3.01-.71,6.19,26.17Z"/>
    <path class="cls-3" d="m347.49,285.78l-2.82.67-2.94-12.44c-.42-1.79-1.11-2.96-2.06-3.5-.95-.54-1.98-.68-3.1-.42-1.53.36-2.68,1.28-3.43,2.75s-.89,3.21-.41,5.22l2.51,10.62-3.01.71-4.58-19.37,2.8-.66.84,3.57c.93-3.11,2.64-4.96,5.15-5.55,1.44-.34,2.76-.26,3.96.25,1.19.51,2.09,1.18,2.69,2.03.6.84,1.19,2.49,1.76,4.93l2.65,11.2Z"/>
    <path class="cls-3" d="m355.56,256.42l-7.08,5.5-1.19-1.36,6.57-6.17,1.7,2.03Zm-3.65,7.87l4.58,19.37-3.01.71-4.58-19.37,3.01-.71Z"/>
    <path class="cls-4" d="m387.6,276.29l-2.82.67-2.94-12.44c-.42-1.79-1.11-2.96-2.06-3.5-.95-.54-1.98-.68-3.1-.42-1.53.36-2.68,1.28-3.43,2.75-.75,1.47-.89,3.21-.41,5.22l2.51,10.62-3.01.71-4.58-19.37,2.8-.66.84,3.57c.93-3.11,2.64-4.96,5.15-5.55,1.44-.34,2.76-.26,3.96.25,1.19.51,2.09,1.18,2.69,2.03.6.84,1.19,2.49,1.76,4.93l2.65,11.2Z"/>
    <path class="cls-4" d="m408.77,271.29l-2.97.7c-.26-.59-.65-1.72-1.17-3.41-.69,3-2.64,4.88-5.83,5.63-2.17.51-3.98.33-5.41-.54-1.44-.88-2.34-2.12-2.73-3.74-.46-1.96-.01-3.76,1.35-5.42,1.36-1.65,4.04-2.95,8.03-3.9.54-.13,1.4-.3,2.59-.53-.36-1.53-.74-2.61-1.14-3.24-.4-.63-1.03-1.06-1.89-1.28-.86-.23-1.92-.19-3.18.1-3.05.72-4.56,2.31-4.5,4.75l-2.89.18c-.17-3.73,2.26-6.18,7.29-7.37,2.67-.63,4.71-.49,6.1.43,1.4.92,2.44,2.83,3.13,5.75l1.95,8.23c.32,1.37.75,2.59,1.29,3.66Zm-5.61-8.9c-1.25.21-2.19.4-2.83.55-2.38.56-4.13,1.39-5.26,2.48-1.13,1.09-1.52,2.39-1.17,3.89.22.95.77,1.67,1.64,2.17.87.5,1.97.59,3.31.27,1.81-.43,3.15-1.44,4.01-3.04.86-1.6,1.08-3.29.65-5.07-.08-.36-.2-.78-.36-1.26Zm-2.73-16.58l-7.08,5.5-1.19-1.36,6.57-6.17,1.7,2.03Z"/>
    <path class="cls-4" d="m410.59,265.55l2.73-1.27c1.22,2.29,3.53,3.03,6.93,2.23,1.25-.3,2.25-.83,2.98-1.6.74-.77.98-1.66.74-2.68-.36-1.52-1.69-2.22-4-2.11l-4.27.19c-1.67.07-3.08-.23-4.24-.9-1.16-.67-1.91-1.74-2.26-3.21-.38-1.62-.06-3.13.97-4.53,1.03-1.4,2.64-2.36,4.83-2.87,4.21-1,7.19.03,8.95,3.09l-2.62,1.25c-1.27-1.83-3.14-2.46-5.61-1.87-1.23.29-2.17.78-2.84,1.47-.67.69-.89,1.49-.68,2.4.34,1.43,1.56,2.09,3.65,1.99l3.94-.22c4.12-.22,6.55,1.23,7.28,4.34.42,1.78.03,3.39-1.19,4.83-1.21,1.44-3.04,2.45-5.48,3.03-4.59,1.09-7.87-.1-9.83-3.55Z"/>
    <path class="cls-4" d="m440.9,261.52l.56,2.38c-1.03.39-1.93.68-2.71.86-3.75.89-6.08-.63-7.01-4.54l-2.76-11.67-3.43.81-.56-2.36,3.43-.81-1.02-4.9,2.74-.93,1.22,5.14,4.33-1.03.56,2.36-4.33,1.03,2.88,12.17c.47,2,1.74,2.75,3.82,2.26.69-.16,1.45-.42,2.29-.76Z"/>
    <path class="cls-4" d="m447.69,262.08l-3.01.71-4.58-19.37,2.65-.63,1.07,4.52c.43-2.36,1.04-3.96,1.83-4.82.79-.85,1.68-1.4,2.66-1.63.31-.07.71-.14,1.21-.2l.68,2.88-.61.15c-1.66.39-2.9,1.34-3.7,2.84-.81,1.5-1.01,3.27-.61,5.31l2.42,10.24Z"/>
    <path class="cls-4" d="m463.98,258.79c-2.66.63-4.97.13-6.92-1.48-1.96-1.62-3.28-3.89-3.97-6.8-.73-3.08-.47-5.74.76-7.98,1.24-2.24,3.1-3.65,5.6-4.24,2.67-.63,5.01-.16,7.01,1.41,2,1.57,3.34,3.81,4.03,6.72s.47,5.68-.74,7.99c-1.21,2.31-3.13,3.77-5.76,4.39Zm-.36-2.55c1.53-.36,2.67-1.3,3.41-2.81.74-1.51.79-3.6.16-6.27-.64-2.68-1.64-4.5-3.01-5.45-1.37-.95-2.79-1.25-4.24-.91s-2.62,1.26-3.36,2.73c-.75,1.47-.81,3.52-.18,6.17.66,2.8,1.65,4.68,2.97,5.64,1.32.96,2.74,1.26,4.26.9Z"/>
    <path class="cls-4" d="m475.69,234.78l4.77,20.17c.54,2.28.37,3.99-.5,5.14-.87,1.15-2.08,1.91-3.64,2.28-.77.18-1.74.27-2.91.26l-.56-2.38c.88,0,1.63-.08,2.27-.23,1.14-.27,1.89-.73,2.25-1.39.36-.66.39-1.65.07-2.98l-4.77-20.16,3.01-.71Zm-1.41-6.63l.79,3.36-3.41.81-.79-3.36,3.41-.81Z"/>
    <path class="cls-4" d="m501.45,249.36l-2.97.7c-.26-.59-.65-1.72-1.17-3.41-.69,3-2.64,4.88-5.83,5.63-2.17.51-3.98.33-5.41-.54-1.44-.88-2.34-2.12-2.73-3.74-.46-1.96-.01-3.76,1.35-5.42,1.36-1.65,4.04-2.95,8.03-3.9.54-.13,1.4-.3,2.59-.53-.36-1.53-.74-2.61-1.14-3.24-.4-.63-1.03-1.06-1.89-1.28-.86-.23-1.92-.19-3.18.1-3.05.72-4.56,2.31-4.5,4.75l-2.89.18c-.17-3.73,2.26-6.18,7.29-7.37,2.67-.63,4.71-.49,6.1.43,1.4.92,2.44,2.83,3.13,5.75l1.95,8.23c.32,1.37.75,2.59,1.29,3.66Zm-5.61-8.9c-1.25.21-2.19.4-2.83.55-2.38.56-4.13,1.39-5.26,2.48-1.13,1.09-1.52,2.39-1.17,3.89.22.95.77,1.67,1.64,2.17.87.5,1.97.59,3.31.27,1.81-.43,3.15-1.44,4.01-3.04.86-1.6,1.08-3.29.65-5.07-.08-.36-.2-.78-.36-1.26Zm-2.73-16.58l-7.08,5.5-1.19-1.36,6.57-6.17,1.7,2.03Z"/>
    <path class="cls-4" d="m498.92,221.21l2.63-1.03,4.26,1.69,2.94-3.39,2.91-.28-5.24,6.48-7.5-3.47Zm11.41,26.05l-3.01.71-4.58-19.37,2.65-.63,1.07,4.52c.43-2.36,1.04-3.96,1.83-4.82.79-.85,1.68-1.4,2.66-1.63.31-.07.71-.14,1.21-.2l.68,2.88-.61.15c-1.66.39-2.9,1.34-3.7,2.84-.81,1.5-1.01,3.27-.61,5.31l2.42,10.24Z"/>
    <path class="cls-4" d="m516.22,240.56l2.73-1.27c1.22,2.29,3.53,3.03,6.93,2.23,1.25-.3,2.25-.83,2.98-1.6.74-.77.98-1.66.74-2.68-.36-1.52-1.69-2.22-4-2.11l-4.27.19c-1.67.07-3.08-.23-4.24-.9-1.16-.67-1.91-1.74-2.26-3.21-.38-1.62-.06-3.13.97-4.53,1.03-1.4,2.64-2.36,4.83-2.87,4.21-1,7.19.03,8.95,3.09l-2.62,1.25c-1.27-1.83-3.14-2.46-5.61-1.87-1.23.29-2.17.78-2.84,1.47-.67.69-.89,1.49-.68,2.4.34,1.43,1.56,2.09,3.65,1.99l3.94-.22c4.12-.22,6.55,1.23,7.28,4.34.42,1.78.03,3.39-1.19,4.83-1.21,1.44-3.04,2.45-5.48,3.03-4.59,1.09-7.87-.1-9.83-3.55Z"/>
    <path class="cls-4" d="m546.52,236.53l.56,2.38c-1.03.39-1.93.68-2.71.86-3.75.89-6.08-.63-7.01-4.54l-2.76-11.67-3.43.81-.56-2.36,3.43-.81-1.02-4.9,2.74-.93,1.22,5.14,4.33-1.03.56,2.36-4.33,1.03,2.88,12.17c.47,2,1.74,2.75,3.82,2.26.69-.16,1.45-.42,2.29-.76Z"/>
    <path class="cls-4" d="m559.91,215.08l-2.11,20.95-3.1.73-11.52-17.72,3.34-.79,9.12,14.47,1.6-17,2.68-.63Z"/>
    <path class="cls-4" d="m570.04,205.68l-7.08,5.5-1.19-1.36,6.57-6.17,1.7,2.03Zm-3.65,7.87l4.58,19.37-3.01.71-4.58-19.37,3.01-.71Z"/>
  </g>
  <rect class="cls-1" width="604.24" height="344.69"/>
</svg>